PathFileType	4	(X/Y/Z)	/tmp/tmpjnq7zxqp/Me/MarkerData/jogging02_segment_0.trc
DataRate	CameraRate	NumFrames	NumMarkers	Units	OrigDataRate	OrigDataStartFrame	OrigNumFrames
100.093	100.093	10	39	m	100.093	537	1074
Frame#	Time	C7			CLAV			LANK			LASI			LBHD			LELB			LFHD			LFIN			LFRM			LHEE			LKNE			LPSI			LSHO			LTHI			LTIB			LTOE			LUPA			LWRA			LWRB			RANK			RASI			RBAK			RBHD			RELB			RFHD			RFIN			RFRM			RHEE			RKNE			RPSI			RSHO			RTHI			RTIB			RTOE			RUPA			RWRA			RWRB			STRN			T10		
		X1	Y1	Z1	X2	Y2	Z2	X3	Y3	Z3	X4	Y4	Z4	X5	Y5	Z5	X6	Y6	Z6	X7	Y7	Z7	X8	Y8	Z8	X9	Y9	Z9	X10	Y10	Z10	X11	Y11	Z11	X12	Y12	Z12	X13	Y13	Z13	X14	Y14	Z14	X15	Y15	Z15	X16	Y16	Z16	X17	Y17	Z17	X18	Y18	Z18	X19	Y19	Z19	X20	Y20	Z20	X21	Y21	Z21	X22	Y22	Z22	X23	Y23	Z23	X24	Y24	Z24	X25	Y25	Z25	X26	Y26	Z26	X27	Y27	Z27	X28	Y28	Z28	X29	Y29	Z29	X30	Y30	Z30	X31	Y31	Z31	X32	Y32	Z32	X33	Y33	Z33	X34	Y34	Z34	X35	Y35	Z35	X36	Y36	Z36	X37	Y37	Z37	X38	Y38	Z38	X39	Y39	Z39

538	5.365	-0.160944	1.40247	0.00686841	-0.312829	1.30424	0.0343403	0.0109739	0.25185	0.173619	-0.204891	0.922026	0.202541	-0.260455	1.54308	0.0973809	-0.0889609	1.07625	0.323718	-0.386581	1.54126	0.13548	-0.349529	0.938404	0.210121	-0.173071	0.95996	0.263502	0.0763758	0.280752	0.111742	-0.351331	0.425927	0.194046	-0.0634518	0.935832	0.0765229	-0.19732	1.37808	0.192551	-0.308683	0.6084	0.220097	-0.120746	0.3248	0.198751	-0.0642432	0.0908219	0.138961	-0.159654	1.23396	0.295179	-0.250828	0.974784	0.190476	-0.250394	0.918295	0.235413	-0.0569541	0.0977992	-0.0234125	-0.217073	0.906353	-0.120442	-0.108608	1.25814	-0.108036	-0.316321	1.53081	-0.0414031	-0.251764	1.04781	-0.273774	-0.42784	1.52505	0.0142726	-0.545451	1.06512	-0.112749	-0.322954	1.0108	-0.238366	0.0228426	0.0662257	0.0373968	-0.289216	0.429451	-0.0891439	-0.0613573	0.930103	0.0127278	-0.248823	1.3662	-0.157333	-0.24277	0.759017	-0.141635	-0.211182	0.319189	-0.0964761	-0.216394	0.058741	0.0351996	-0.251709	1.13642	-0.251653	-0.428414	1.0555	-0.120055	-0.46751	1.00448	-0.154637	-0.335137	1.14248	0.0474579	-0.0828704	1.16748	0.0236951
539	5.37499	-0.16113	1.40602	0.00636669	-0.31285	1.30809	0.0356295	-0.0078034	0.242444	0.172183	-0.204038	0.926433	0.201752	-0.260769	1.54701	0.097886	-0.075448	1.0857	0.322382	-0.386647	1.54457	0.136743	-0.336407	0.940673	0.218524	-0.158932	0.967278	0.266097	0.0601881	0.266375	0.110623	-0.361663	0.434626	0.191672	-0.0622952	0.939594	0.0766435	-0.194063	1.38204	0.191456	-0.314872	0.616124	0.21877	-0.135968	0.322327	0.197098	-0.0946333	0.0876631	0.137419	-0.150477	1.24148	0.29391	-0.239488	0.979482	0.195288	-0.235977	0.923382	0.241137	-0.0377184	0.0991436	-0.0234584	-0.216151	0.909467	-0.120869	-0.112154	1.26204	-0.111836	-0.317452	1.53437	-0.0405477	-0.262954	1.05142	-0.270259	-0.428605	1.52809	0.0157982	-0.550362	1.07976	-0.0996917	-0.33393	1.01702	-0.231752	0.0419262	0.0671382	0.0373913	-0.273535	0.428876	-0.0880474	-0.0608598	0.934808	0.0127923	-0.2517	1.37065	-0.157075	-0.239541	0.76031	-0.141296	-0.193636	0.319799	-0.0958724	-0.196425	0.0586593	0.0350999	-0.260393	1.1402	-0.249235	-0.43415	1.06691	-0.111012	-0.475683	1.01618	-0.142987	-0.336533	1.14679	0.0494087	-0.0838553	1.17228	0.0221092
540	5.38498	-0.161244	1.41037	0.00499773	-0.313186	1.31268	0.0372232	-0.0274643	0.232127	0.170434	-0.203042	0.931182	0.20091	-0.261193	1.55168	0.0986442	-0.0625375	1.09624	0.32055	-0.386832	1.5487	0.138166	-0.323724	0.944367	0.226348	-0.145125	0.975456	0.268337	0.0426729	0.250756	0.109174	-0.370678	0.443758	0.189231	-0.0615747	0.94416	0.076398	-0.190969	1.38693	0.1904	-0.32067	0.624567	0.217386	-0.151046	0.319351	0.195295	-0.12568	0.0846518	0.135513	-0.141857	1.24996	0.292676	-0.228566	0.985181	0.199698	-0.221994	0.929586	0.246236	-0.0185465	0.100797	-0.0238141	-0.21399	0.914452	-0.121071	-0.115027	1.26682	-0.114777	-0.318551	1.53868	-0.039508	-0.273794	1.05648	-0.266643	-0.429416	1.53194	0.0175041	-0.553959	1.09452	-0.0862459	-0.344222	1.02443	-0.225256	0.0613261	0.0696228	0.0371982	-0.257514	0.4294	-0.0869857	-0.0602958	0.940503	0.012684	-0.254898	1.37608	-0.156437	-0.2368	0.762265	-0.140944	-0.175607	0.321515	-0.0952937	-0.176113	0.0584531	0.0349796	-0.269397	1.14525	-0.246669	-0.438635	1.07863	-0.101673	-0.482671	1.02846	-0.131423	-0.337811	1.15211	0.0522432	-0.0845885	1.17936	0.019384
541	5.39497	-0.161661	1.41521	0.00314485	-0.313653	1.31792	0.0390197	-0.0479127	0.221267	0.168462	-0.202263	0.936637	0.199891	-0.261689	1.55698	0.0995978	-0.0503165	1.10759	0.3183	-0.387083	1.55345	0.139839	-0.311566	0.949251	0.233575	-0.131857	0.984322	0.269874	0.0236774	0.234329	0.107401	-0.378437	0.453174	0.186713	-0.0613341	0.949693	0.0758646	-0.188167	1.39261	0.189278	-0.326042	0.633636	0.215959	-0.166115	0.31597	0.193307	-0.15731	0.0821176	0.133318	-0.134104	1.25896	0.291005	-0.218096	0.991691	0.203742	-0.208605	0.936677	0.25048	-0.000172184	0.103363	-0.0245203	-0.210798	0.921086	-0.121109	-0.117691	1.27226	-0.116688	-0.319685	1.5437	-0.0382341	-0.284344	1.06268	-0.263134	-0.430225	1.53649	0.019339	-0.556302	1.10912	-0.0725519	-0.353808	1.03279	-0.21895	0.0803685	0.0738722	0.0365418	-0.241523	0.431025	-0.0859448	-0.0601681	0.946824	0.0122335	-0.258438	1.38237	-0.155438	-0.234068	0.764619	-0.140583	-0.157558	0.324539	-0.0948424	-0.155739	0.0582866	0.0348882	-0.278645	1.15133	-0.243865	-0.442092	1.09047	-0.0923562	-0.488486	1.04109	-0.120027	-0.338496	1.15798	0.0554992	-0.0852459	1.18697	0.0156383
542	5.40496	-0.162514	1.42074	0.00149059	-0.314146	1.32374	0.0408273	-0.0694522	0.209962	0.16624	-0.201995	0.943121	0.1987	-0.262217	1.56281	0.100734	-0.0389111	1.11946	0.315638	-0.387401	1.55882	0.141668	-0.299775	0.954997	0.240399	-0.119324	0.993853	0.270717	0.00310179	0.21745	0.105218	-0.385009	0.462715	0.184271	-0.0616108	0.956274	0.0751721	-0.185832	1.3989	0.188093	-0.330695	0.643236	0.214224	-0.181356	0.312223	0.191219	-0.189478	0.0805271	0.13121	-0.127016	1.26839	0.289294	-0.207929	0.999079	0.20716	-0.196034	0.944758	0.253848	0.0172873	0.106706	-0.0255595	-0.207069	0.928902	-0.121057	-0.120539	1.27852	-0.118181	-0.320927	1.54931	-0.0367787	-0.294621	1.06984	-0.259856	-0.43109	1.54169	0.0213509	-0.557443	1.12334	-0.0587686	-0.36266	1.04183	-0.212787	0.0989101	0.0794411	0.0355217	-0.22567	0.433938	-0.0849357	-0.0604709	0.953517	0.0113644	-0.262289	1.38932	-0.15416	-0.230979	0.767431	-0.140228	-0.140001	0.328913	-0.0946126	-0.135251	0.058092	0.0347424	-0.288025	1.15829	-0.24072	-0.444629	1.10233	-0.083246	-0.493087	1.05374	-0.108817	-0.338645	1.16402	0.0588883	-0.0859892	1.19395	0.0113818
543	5.41495	-0.163858	1.42692	0.000440777	-0.314759	1.33002	0.0425403	-0.091979	0.198493	0.163818	-0.202309	0.950545	0.197302	-0.262779	1.56903	0.102023	-0.0282347	1.13161	0.312729	-0.387743	1.56466	0.143614	-0.288632	0.961509	0.246536	-0.10747	1.00382	0.271113	-0.018966	0.200601	0.102812	-0.390459	0.472096	0.182086	-0.0624353	0.963761	0.0742924	-0.184028	1.40563	0.186909	-0.334356	0.652783	0.212177	-0.196878	0.308163	0.189187	-0.221911	0.0794996	0.128744	-0.120568	1.27814	0.287792	-0.198527	1.00735	0.210251	-0.184357	0.953631	0.256459	0.0337708	0.110888	-0.0269389	-0.203754	0.937062	-0.121006	-0.12396	1.28555	-0.119826	-0.322246	1.55538	-0.0351788	-0.304498	1.07784	-0.256737	-0.432017	1.54739	0.0235245	-0.557477	1.13696	-0.0450557	-0.370798	1.05126	-0.20682	0.116942	0.0865373	0.0345833	-0.210157	0.438229	-0.0840344	-0.0610198	0.96051	0.010252	-0.266406	1.39674	-0.152639	-0.227456	0.770861	-0.139846	-0.123316	0.334487	-0.0945944	-0.114683	0.0577178	0.0345146	-0.297225	1.16602	-0.237551	-0.446311	1.11399	-0.0744252	-0.496622	1.06613	-0.097823	-0.338435	1.17021	0.0621902	-0.0869687	1.2	0.00703456
544	5.42494	-0.165628	1.43346	-3.60378e-06	-0.315232	1.33669	0.044318	-0.11555	0.187072	0.161271	-0.203216	0.958621	0.19579	-0.263349	1.57547	0.103375	-0.0185212	1.14377	0.309365	-0.388069	1.5708	0.145666	-0.278195	0.968587	0.251845	-0.0967254	1.01424	0.270822	-0.0425538	0.183961	0.100446	-0.394696	0.481165	0.180115	-0.0638467	0.971895	0.0733004	-0.182752	1.41262	0.185804	-0.337122	0.661949	0.210317	-0.212665	0.303894	0.187224	-0.254552	0.0790906	0.125576	-0.114785	1.28799	0.286401	-0.189987	1.01627	0.212986	-0.173523	0.962961	0.258454	0.0492853	0.115929	-0.028605	-0.202249	0.94437	-0.121074	-0.128032	1.29318	-0.121759	-0.323641	1.56178	-0.0334551	-0.313857	1.08642	-0.253639	-0.433016	1.55347	0.0258606	-0.556518	1.14978	-0.0315349	-0.37826	1.06088	-0.201137	0.133934	0.0946656	0.0334209	-0.195469	0.443687	-0.0833681	-0.0627975	0.967215	0.00944094	-0.270693	1.40446	-0.150878	-0.223782	0.774991	-0.139448	-0.107504	0.341057	-0.094789	-0.0939922	0.057071	0.0343815	-0.306217	1.17435	-0.234503	-0.447166	1.12522	-0.0659958	-0.499178	1.07802	-0.0871286	-0.338004	1.17668	0.0651023	-0.0882309	1.20542	0.00282655
545	5.43493	-0.16764	1.44015	-0.000101771	-0.315827	1.34364	0.0462265	-0.140208	0.175848	0.158702	-0.204549	0.967033	0.194282	-0.263925	1.58201	0.104835	-0.00977974	1.15581	0.305727	-0.388376	1.57712	0.147822	-0.268555	0.976211	0.256529	-0.0871383	1.02488	0.269923	-0.0673855	0.167574	0.0981738	-0.397702	0.489758	0.178415	-0.065688	0.980373	0.0723114	-0.181957	1.41971	0.18489	-0.338869	0.670638	0.208412	-0.228535	0.299567	0.185337	-0.286974	0.0791559	0.121567	-0.109844	1.29761	0.284451	-0.182482	1.02551	0.214908	-0.163554	0.972493	0.259914	0.0640185	0.121712	-0.0302811	-0.203481	0.950037	-0.121353	-0.132305	1.30138	-0.123908	-0.325084	1.56836	-0.0316388	-0.322667	1.09536	-0.250589	-0.434027	1.55978	0.028366	-0.554654	1.1616	-0.0183308	-0.384949	1.07051	-0.195744	0.149688	0.103748	0.0320199	-0.181793	0.45	-0.0830873	-0.0648568	0.974384	0.00869357	-0.27501	1.41235	-0.148908	-0.220303	0.779746	-0.139154	-0.0924727	0.348436	-0.0952368	-0.0740385	0.0570365	0.0342775	-0.314842	1.18305	-0.231517	-0.447348	1.13588	-0.0579015	-0.500827	1.08926	-0.0768009	-0.337446	1.18369	0.0675234	-0.0896668	1.21097	-0.00111788
546	5.44493	-0.169668	1.44687	-8.84264e-05	-0.316641	1.3507	0.0482424	-0.165871	0.164939	0.156257	-0.206157	0.975567	0.192923	-0.264476	1.58851	0.106332	-0.00196876	1.16762	0.301829	-0.388628	1.58339	0.150151	-0.259772	0.984215	0.260589	-0.0785449	1.03556	0.268611	-0.093284	0.151659	0.0959835	-0.399413	0.497663	0.177055	-0.0678048	0.988971	0.0714698	-0.181568	1.42675	0.184246	-0.33966	0.67875	0.206624	-0.244426	0.295278	0.183638	-0.319264	0.0803021	0.117109	-0.105675	1.30696	0.282442	-0.175663	1.03478	0.216175	-0.154541	0.982051	0.260837	0.0778349	0.128105	-0.0318679	-0.206305	0.95497	-0.121756	-0.136888	1.30986	-0.126008	-0.326515	1.575	-0.0296912	-0.330887	1.1045	-0.247773	-0.435058	1.56616	0.030969	-0.552019	1.17227	-0.00553447	-0.391123	1.07998	-0.190686	0.164256	0.113837	0.03047	-0.168929	0.456846	-0.0831825	-0.0669449	0.982137	0.00804701	-0.279199	1.42025	-0.146727	-0.217303	0.78495	-0.139139	-0.0781537	0.356479	-0.0959465	-0.0541901	0.0569364	0.0340732	-0.322933	1.19197	-0.228544	-0.446967	1.14588	-0.0501798	-0.501669	1.09969	-0.0669134	-0.336867	1.19128	0.0695065	-0.0909935	1.21737	-0.00453263
547	5.45492	-0.171626	1.45344	-4.63982e-05	-0.317638	1.35771	0.0502777	-0.19227	0.154574	0.154069	-0.207932	0.984042	0.191764	-0.264959	1.59482	0.107884	0.00489509	1.179	0.297737	-0.388825	1.58954	0.152486	-0.251891	0.992332	0.26397	-0.0709227	1.04608	0.267018	-0.12025	0.136363	0.0939776	-0.399824	0.50462	0.175926	-0.0700859	0.997474	0.0708187	-0.181501	1.43363	0.18385	-0.339486	0.685988	0.205137	-0.260405	0.291027	0.182306	-0.351356	0.0831102	0.112186	-0.102164	1.31596	0.280632	-0.169583	1.04394	0.217173	-0.146481	0.991516	0.261132	0.0906964	0.134852	-0.0334967	-0.20846	0.960873	-0.121955	-0.141427	1.31844	-0.127887	-0.32792	1.58154	-0.0276795	-0.338619	1.11365	-0.245254	-0.436056	1.57247	0.0336075	-0.54867	1.18168	0.00675635	-0.396547	1.08914	-0.185879	0.177932	0.124743	0.0290182	-0.156734	0.464018	-0.0834948	-0.06914	0.990234	0.0076285	-0.283149	1.42799	-0.144319	-0.214772	0.790335	-0.13943	-0.0646273	0.365002	-0.0968673	-0.0342526	0.0566721	0.0337045	-0.330376	1.20094	-0.225647	-0.446076	1.15507	-0.0429636	-0.501655	1.10916	-0.0574648	-0.336447	1.19923	0.0711527	-0.0923959	1.22479	-0.00738657
